<svg xmlns="http://www.w3.org/2000/svg" viewBox="0 0 24 24">
  <circle cx="12" cy="12" r="10" opacity=".35" fill="#2E8383" />
  <path d="M12.579,4.021c-2.322-0.166-4.596,0.683-6.236,2.323c-1.64,1.64-2.486,3.912-2.322,6.234C4.314,16.74,7.934,20,12.26,20H14c0.552,0,1-0.447,1-1s-0.448-1-1-1h-1.74c-3.281,0-6.024-2.443-6.244-5.562c-0.123-1.744,0.512-3.45,1.742-4.68c1.229-1.23,2.935-1.86,4.681-1.743C15.557,6.235,18,8.979,18,12.26V13c0,0.552-0.449,1-1,1s-1-0.448-1-1v-1c0-2.206-1.794-4-4-4s-4,1.794-4,4s1.794,4,4,4c1.05,0,2-0.415,2.714-1.08C15.265,15.575,16.08,16,17,16c1.654,0,3-1.346,3-3v-0.74C20,7.934,16.74,4.313,12.579,4.021z M12,14c-1.103,0-2-0.897-2-2s0.897-2,2-2s2,0.897,2,2S13.103,14,12,14z" fill="#2E8383" />
</svg>