<svg xmlns="http://www.w3.org/2000/svg" viewBox="0 0 24 24">
  <path d="M22.433,8.916C21.957,8.333,21.252,8,20.5,8H3.5C2.748,8,2.043,8.333,1.567,8.916c-0.477,0.582-0.666,1.338-0.518,2.075l1.16,5.794C2.582,18.648,4.231,20,6.131,20h11.738c1.899,0,3.549-1.352,3.922-3.215l1.16-5.794C23.099,10.253,22.91,9.497,22.433,8.916z" opacity=".35" fill="#EFF48E" />
  <path d="M17,12c0-0.552-0.448-1-1-1c-0.552,0-1,0.448-1,1c0,0.257,0,3.743,0,4c0,0.552,0.448,1,1,1c0.552,0,1-0.448,1-1C17,15.743,17,12.257,17,12z" fill="#EFF48E" />
  <path d="M9,12c0-0.552-0.448-1-1-1s-1,0.448-1,1c0,0.257,0,3.743,0,4c0,0.552,0.448,1,1,1s1-0.448,1-1C9,15.743,9,12.257,9,12z" fill="#EFF48E" />
  <path d="M13,12c0-0.552-0.448-1-1-1s-1,0.448-1,1c0,0.257,0,3.743,0,4c0,0.552,0.448,1,1,1s1-0.448,1-1C13,15.743,13,12.257,13,12z" fill="#EFF48E" />
  <path d="M7.562,8l0.811-3.243C8.484,4.311,8.883,4,9.342,4h5.315c0.46,0,0.859,0.311,0.97,0.757L16.438,8H18.5l-0.932-3.728C17.234,2.937,16.034,2,14.658,2H9.342c-1.377,0-2.577,0.937-2.91,2.272L5.5,8H7.562z" fill="#EFF48E" />
</svg>