<svg xmlns="http://www.w3.org/2000/svg" viewBox="0 0 24 24">
  <circle cx="6.5" cy="18.5" r="2.5" fill="#2EC1AC" />
  <circle cx="17.5" cy="18.5" r="2.5" fill="#2EC1AC" />
  <path d="M22.677,10.245l-1.897-4.427C20.306,4.715,19.222,4,18.022,4H4C2.343,4,1,5.343,1,7v9c0,1.657,1.343,3,3,3h11h5c1.657,0,3-1.343,3-3v-4.179C23,11.279,22.89,10.743,22.677,10.245z" opacity=".35" fill="#2EC1AC" />
  <path d="M12.647,13.209V8.791C12.647,8.354,13.002,8,13.439,8h1.509c0.33,0,0.598,0.268,0.598,0.598v0c0,0.33-0.268,0.598-0.598,0.598h-1.004v1.178h0.914c0.309,0,0.559,0.25,0.559,0.559v0c0,0.309-0.25,0.559-0.559,0.559h-0.914v1.288h1.106c0.33,0,0.598,0.268,0.598,0.598v0.026c0,0.33-0.268,0.598-0.598,0.598h-1.611C13.002,14,12.647,13.646,12.647,13.209z" fill="#2EC1AC" />
  <path d="M16.663,13.209V8.791C16.663,8.354,17.018,8,17.455,8h1.509c0.33,0,0.598,0.268,0.598,0.598v0c0,0.33-0.268,0.598-0.598,0.598H17.96v1.178h0.914c0.309,0,0.559,0.25,0.559,0.559v0c0,0.309-0.25,0.559-0.559,0.559H17.96v1.288h1.106c0.33,0,0.598,0.268,0.598,0.598v0.026c0,0.33-0.268,0.598-0.598,0.598h-1.611C17.018,14,16.663,13.646,16.663,13.209z" fill="#2EC1AC" />
  <path d="M5.365,9.221v1.228h0.872c0.309,0,0.559,0.25,0.559,0.559v0.042c0,0.309-0.25,0.559-0.559,0.559H5.373v1.704C5.373,13.693,5.066,14,4.686,14h0C4.307,14,4,13.693,4,13.314V8.791C4,8.354,4.354,8,4.791,8h1.535c0.33,0,0.598,0.268,0.598,0.598v0.026c0,0.33-0.268,0.598-0.598,0.598H5.365z" fill="#2EC1AC" />
  <path d="M10.969,14c-0.283,0-0.534-0.181-0.624-0.449L9.693,11.61H9.296v1.738c0,0.36-0.292,0.653-0.653,0.653h0c-0.36,0-0.653-0.292-0.653-0.653V8.791C7.991,8.354,8.345,8,8.783,8h1.129c1.329,0,1.835,0.794,1.835,1.805c0,0.903-0.424,1.346-0.845,1.517l0.682,1.786C11.747,13.538,11.429,14,10.969,14L10.969,14z M10.415,9.881c0-0.672-0.458-0.746-0.695-0.746H9.296v1.517h0.399C9.922,10.652,10.415,10.553,10.415,9.881z" fill="#2EC1AC" />
</svg>