<svg xmlns="http://www.w3.org/2000/svg" viewBox="0 0 24 24">
  <path fill-rule="evenodd" d="M22.688,17.688l-3.326-3.326c0.175,0.995-0.159,2.163-0.998,3.002c-0.938,0.938-2.289,1.25-3.348,0.918c-0.185,0.354-0.459,0.675-0.792,0.942l3.464,3.464c0.584,0.584,1.583,0.308,1.784-0.494l0.318-1.273c0.139-0.557,0.574-0.992,1.131-1.131l1.273-0.318C22.996,19.271,23.272,18.272,22.688,17.688z" clip-rule="evenodd" fill="#2EC1AC" />
  <path fill-rule="evenodd" d="M1.312,17.688l3.326-3.326c-0.175,0.995,0.159,2.163,0.998,3.002c0.938,0.938,2.289,1.25,3.348,0.918c0.185,0.354,0.459,0.675,0.792,0.942l-3.464,3.464c-0.584,0.584-1.583,0.308-1.784-0.494L4.21,20.921c-0.139-0.557-0.574-0.992-1.131-1.131l-1.273-0.318C1.004,19.271,0.728,18.272,1.312,17.688z" clip-rule="evenodd" fill="#2EC1AC" />
  <path fill-rule="evenodd" d="M8.984,3.718C9.498,2.735,10.674,2,12,2s2.502,0.735,3.016,1.718c1.058-0.332,2.41-0.02,3.348,0.918c0.938,0.938,1.25,2.289,0.918,3.348C20.265,8.498,21,9.674,21,11s-0.735,2.502-1.718,3.016c0.332,1.058,0.02,2.41-0.918,3.348c-0.938,0.938-2.289,1.25-3.348,0.918C14.502,19.265,13.326,20,12,20s-2.502-0.735-3.016-1.718c-1.058,0.332-2.41,0.02-3.348-0.918c-0.938-0.938-1.25-2.289-0.918-3.348C3.735,13.502,3,12.326,3,11s0.735-2.502,1.718-3.016c-0.332-1.058-0.02-2.41,0.918-3.348C6.574,3.698,7.925,3.386,8.984,3.718z" clip-rule="evenodd" opacity=".35" fill="#2EC1AC" />
  <path d="M11,15c-0.256,0-0.512-0.098-0.707-0.293l-3-3c-0.391-0.391-0.391-1.023,0-1.414s1.023-0.391,1.414,0L11,12.586l4.293-4.293c0.391-0.391,1.023-0.391,1.414,0s0.391,1.023,0,1.414l-5,5C11.512,14.902,11.256,15,11,15z" fill="#2EC1AC" />
</svg>