<svg xmlns="http://www.w3.org/2000/svg" viewBox="0 0 24 24">
  <path d="M12,2C6.477,2,2,6.477,2,12v4h3v-4c0-3.866,3.134-7,7-7s7,3.134,7,7v4h3v-4C22,6.477,17.523,2,12,2z" opacity=".35" fill="#2E8383" />
  <path d="M21,12h-2c-1.105,0-2,0.895-2,2v2c0,1.105,0.895,2,2,2h2c0.552,0,1-0.448,1-1v-4C22,12.448,21.552,12,21,12z" fill="#2E8383" />
  <path d="M3,12h2c1.105,0,2,0.895,2,2v2c0,1.105-0.895,2-2,2H3c-0.552,0-1-0.448-1-1v-4C2,12.448,2.448,12,3,12z" fill="#2E8383" />
  <path d="M5,18v-1H3v1c0,2.209,1.791,4,4,4h5v-2H7C5.895,20,5,19.105,5,18z" opacity=".35" fill="#2E8383" />
  <circle cx="12" cy="21" r="2" fill="#2E8383" />
</svg>