<svg xmlns="http://www.w3.org/2000/svg" viewBox="0 0 48 48"><path fill="#558b2f" d="M45.987,8.497l-0.02,0.016c-0.105-0.064-4.73-1.818-14.065,1.55 c-5.973,2.156-6.946,7.243-6.85,10.705c0.062,2.236,1.599,4.19,3.762,4.789c0.02,0.005,0.039,0.011,0.059,0.016 c3.353,0.915,8.536,1.177,12.056-4.082C46.515,13.144,45.987,8.497,45.987,8.497z"/><path fill="#558b2f" d="M44.941,39.503l-0.02-0.016c-0.105,0.064-4.73,1.818-14.065-1.55 c-5.973-2.156-6.946-7.243-6.85-10.705c0.062-2.236,1.599-4.19,3.762-4.789c0.02-0.005,0.039-0.011,0.059-0.016 c3.353-0.915,8.536-1.177,12.056,4.082C45.47,34.856,44.941,39.503,44.941,39.503z"/><path fill="#558b2f" d="M25.948,24.826c2.7-2.362,0.757-11.84-12.383-12.826C10.436,23.248,21.963,28.312,25.948,24.826z"/><path fill="#558b2f" d="M24.805,26.598c4.361,5.162,2.1,9.222-2.551,11.784S3.65,39.992,2,38.747 c2.793-2.921,2.793-9.878,8.402-13.54C12.702,23.705,20.229,21.182,24.805,26.598z"/><path fill="#33691e" d="M45.919,8.552c-0.015-0.023-0.045-0.031-0.069-0.016c-3.544,2.199-7.551,3.461-11.133,5.754c0.209-0.469,0.461-0.905,0.752-1.321c0.535-0.739,1.078-1.515,1.788-2.162c0.703-0.647,1.498-1.211,2.357-1.66c0.851-0.463,1.769-0.829,2.742-0.993C42.38,8.15,42.4,8.128,42.399,8.102c-0.001-0.028-0.024-0.049-0.052-0.048c-2.013,0.08-3.963,0.913-5.599,2.136c-0.811,0.617-1.638,1.307-2.134,2.261c-0.367,0.686-0.599,1.494-0.561,2.274c-1.332,0.911-2.589,2.003-3.54,3.342c0.018-0.117,0.042-0.235,0.055-0.351c0.221-1.03,0.033-2.097,0.232-3.109c0.181-1.007,0.489-1.985,1.048-2.83c0.278-0.422,0.616-0.816,1.031-1.145c0.406-0.34,0.884-0.61,1.343-0.967c0.033-0.026,0.047-0.07,0.033-0.111c-0.018-0.052-0.075-0.08-0.127-0.062l-0.015,0.005c-1.003,0.345-2.163,0.761-3.026,1.631c-0.871,0.848-1.453,1.95-1.834,3.069c-0.301,0.835-0.572,1.689-0.661,2.555c-0.674-1.012-1.166-2.156-1.412-3.392c-0.97,1.26-1.53,2.66-1.83,4.03c-0.13-0.17-0.27-0.35-0.41-0.52c-0.521,1.006-1.231,1.892-2.061,2.647c-0.024-0.612-0.08-1.242-0.171-1.882c-0.129-0.865-0.36-1.761-0.863-2.511c-0.507-0.748-1.224-1.286-1.975-1.685c-0.022-0.01-0.052-0.004-0.065,0.017c-0.015,0.023-0.009,0.054,0.015,0.069c0.674,0.508,1.25,1.118,1.592,1.847c0.366,0.716,0.476,1.526,0.501,2.336c0.019,0.491-0.029,0.988-0.046,1.498c-0.612-0.402-1.238-0.778-1.831-1.194c-0.578-0.397-1.148-0.8-1.707-1.215c0.034-0.098,0.078-0.188,0.107-0.292c0.158-0.515,0.058-1.135-0.117-1.68c-0.361-1.123-1.198-1.858-2.022-2.458c-0.018-0.012-0.044-0.013-0.062,0.002c-0.021,0.018-0.024,0.05-0.007,0.071c0.629,0.797,1.205,1.672,1.31,2.562c0.048,0.372-0.04,0.725-0.075,1.111c-0.312-0.247-0.631-0.485-0.931-0.744c-1.104-0.938-2.149-1.979-2.771-3.307c-0.02-0.042-0.068-0.07-0.115-0.059c-0.054,0.012-0.088,0.066-0.076,0.12c0.34,1.506,1.295,2.786,2.253,3.953c1.007,1.142,2.107,2.185,3.218,3.192c0.374,0.334,0.739,0.677,1.103,1.018c-0.186-0.087-0.374-0.165-0.558-0.227c-0.871-0.296-1.74-0.295-2.561-0.481c-0.82-0.173-1.616-0.443-2.271-0.943c-0.673-0.478-1.172-1.183-1.523-1.976c-0.01-0.022-0.036-0.037-0.06-0.031c-0.027,0.007-0.042,0.035-0.035,0.061c0.227,0.845,0.63,1.681,1.297,2.328c0.668,0.643,1.527,1.046,2.377,1.33c0.853,0.284,1.709,0.546,2.524,0.678c0.323,0.063,0.627,0.117,0.904,0.206C19.089,21.72,17.828,22,16.5,22c-0.5,0-0.99-0.04-1.47-0.11c0.4,0.53,0.84,1.01,1.32,1.44c-1.46,0.12-2.82,0.48-3.93,0.9C13.09,24.08,13.78,24,14.5,24c1.446,0,2.811,0.332,4.038,0.909c-0.049-0.005-0.096-0.014-0.145-0.019c-1.288-0.145-2.583,0.155-3.866,0.364c-1.284,0.225-2.566,0.53-3.794,1.005c-1.21,0.505-2.39,1.173-3.264,2.138c-0.029,0.034-0.035,0.086-0.008,0.125c0.032,0.046,0.094,0.057,0.14,0.026c1.052-0.691,2.22-1.105,3.423-1.331c1.195-0.256,2.424-0.351,3.656-0.37c1.236-0.031,2.473,0.191,3.715,0.043c0.026-0.003,0.051-0.006,0.077-0.009c-0.111,0.043-0.226,0.08-0.334,0.126c-2.085,0.842-3.699,2.333-5.271,3.734c-0.279-0.022-0.558-0.036-0.839-0.038c-0.979-0.012-1.953,0.253-2.886,0.57c-0.936,0.322-1.818,0.783-2.607,1.347c-0.783,0.576-1.488,1.228-2.161,1.903c-0.017,0.017-0.02,0.046-0.004,0.066c0.017,0.022,0.048,0.026,0.07,0.009c1.515-1.141,3.139-2.159,4.926-2.557c0.791-0.189,1.603-0.212,2.415-0.305c-1.365,1.259-2.694,2.535-4.085,3.711c-1.643,1.409-3.429,2.746-5.583,3.175c-0.048,0.01-0.087,0.054-0.085,0.104c0.003,0.055,0.05,0.098,0.105,0.095c2.285-0.117,4.331-1.352,6.171-2.58c0.787-0.552,1.544-1.133,2.297-1.714c-0.046,0.131-0.091,0.262-0.135,0.392c-0.216,0.608-0.278,1.247-0.516,1.834c-0.443,1.178-1.361,2.153-2.534,2.806c-0.021,0.011-0.031,0.036-0.024,0.06c0.009,0.026,0.037,0.041,0.063,0.032c0.643-0.208,1.274-0.505,1.838-0.931c0.555-0.434,1.022-0.996,1.375-1.614c0.35-0.617,0.685-1.266,0.771-1.961c0.056-0.427,0.071-0.853,0.037-1.282c0.708-0.551,1.413-1.104,2.124-1.635c1.42-1.071,2.91-1.985,4.379-2.833c-0.058,0.403-0.113,0.801-0.169,1.2c-0.169,1.057-0.039,2.151-0.197,3.241c-0.16,1.079-0.407,2.157-0.801,3.178c-0.388,1.019-0.942,1.998-1.866,2.631l-0.009,0.006c-0.036,0.025-0.053,0.071-0.038,0.114c0.017,0.052,0.074,0.081,0.126,0.064c1.16-0.382,2.012-1.371,2.675-2.355c0.654-1.016,1.125-2.132,1.473-3.282c0.345-1.143,0.76-2.331,0.636-3.562c-0.061-0.672-0.203-1.352-0.449-1.997c0.823-0.432,1.669-0.796,2.563-1.056C23.22,29.201,24,31.257,24,33.5c0,1.63-0.41,3.17-1.14,4.52c1.49-0.9,2.68-1.96,3.42-3.19c-0.23-0.77-0.35-1.6-0.35-2.45c0-2.048,0.713-3.928,1.897-5.415c0.419,0.233,0.83,0.466,1.232,0.7c-0.128,0.68-0.16,1.375-0.121,2.059c0.061,1.32,0.669,2.528,1.222,3.683c0.554,1.165,1.25,2.255,2.071,3.229c0.834,0.962,1.761,1.836,2.81,2.515c0.038,0.024,0.088,0.021,0.123-0.01c0.041-0.037,0.044-0.101,0.007-0.142c-0.825-0.91-1.549-1.883-2.119-2.935c-0.583-1.041-1.05-2.133-1.405-3.249c-0.356-1.126-0.407-2.3-0.733-3.405c-0.068-0.243-0.134-0.486-0.2-0.731c0.282,0.182,0.564,0.363,0.841,0.554c1.462,1.026,3.047,1.934,4.469,3.13c0.236,0.195,0.462,0.409,0.694,0.61c0.002,0.321,0.021,0.642,0.062,0.958c0.104,0.836,0.469,1.61,0.819,2.366c0.357,0.756,0.79,1.48,1.325,2.125c0.546,0.633,1.202,1.185,1.955,1.521c0.022,0.01,0.049,0.002,0.062-0.018c0.015-0.023,0.008-0.054-0.015-0.069c-0.671-0.445-1.191-1.06-1.6-1.729c-0.422-0.661-0.742-1.384-0.986-2.129c-0.228-0.675-0.333-1.379-0.524-2.058c0.791,0.721,1.575,1.457,2.359,2.203c1.402,1.25,2.778,2.662,4.57,3.439c0.044,0.019,0.096,0.004,0.123-0.037c0.03-0.046,0.017-0.108-0.029-0.138l-0.01-0.006c-1.557-1.015-2.719-2.507-3.929-3.946c-1.221-1.435-2.448-2.891-3.795-4.268c-0.215-0.218-0.436-0.437-0.656-0.656c0.077,0.013,0.154,0.022,0.23,0.036c0.92,0.186,1.873,0.341,2.779,0.702c0.903,0.356,1.765,0.839,2.542,1.435c0.783,0.586,1.496,1.297,1.985,2.17c0.012,0.022,0.039,0.032,0.063,0.023c0.026-0.01,0.038-0.039,0.028-0.065c-0.376-0.949-1.014-1.787-1.751-2.508c-0.752-0.707-1.608-1.307-2.535-1.783c-0.924-0.466-1.915-0.909-2.991-0.967c-0.421-0.026-0.853,0.004-1.278,0.072c-0.891-0.823-1.844-1.589-2.956-2.136c-0.63-0.316-1.289-0.589-1.965-0.805c1.012-0.057,2.02-0.287,3.069-0.268c1.139,0.023,2.291,0.161,3.432,0.41c1.149,0.233,2.27,0.618,3.38,1.078c0.041,0.017,0.09,0.005,0.119-0.031c0.034-0.044,0.026-0.107-0.018-0.141c-0.963-0.745-2.04-1.346-3.171-1.856c-1.138-0.493-2.346-0.853-3.593-1.053c-1.02-0.167-2.092-0.337-3.144-0.207c1.185-0.606,2.523-0.955,3.944-0.955c1.24,0,2.42,0.26,3.49,0.74c1.01-0.69,1.96-1.65,2.82-2.93c0.64-0.96,1.2-1.87,1.69-2.73C40.97,20.16,38.83,21,36.5,21c-2.018,0-3.888-0.629-5.427-1.701c1.212,0.331,2.36,0.446,3.537,0.486c1.254,0.051,2.53-0.298,3.807-0.667c1.282-0.369,2.507-0.999,3.517-1.828c1.006-0.838,1.852-1.798,2.581-2.826c0.025-0.037,0.024-0.089-0.006-0.125c-0.037-0.042-0.1-0.046-0.142-0.009c-0.956,0.805-1.924,1.576-2.989,2.129c-1.052,0.57-2.159,0.925-3.31,1.097c-1.159,0.169-2.379-0.008-3.607,0.234c-1.062,0.194-2.146,0.472-3.176,0.997c1.044-1.435,2.308-2.719,3.789-3.781c0.768-0.546,1.573-1.043,2.394-1.52c0.535,0.344,1.167,0.536,1.798,0.61c0.836,0.106,1.661-0.131,2.428-0.385c1.55-0.513,2.9-1.471,3.911-2.668c0.015-0.018,0.016-0.046,0-0.064c-0.018-0.021-0.049-0.024-0.071-0.007c-1.201,0.979-2.6,1.666-4.05,1.967c-0.73,0.152-1.463,0.113-2.178,0.158c-0.384,0.019-0.769,0.017-1.164,0.004c2.59-1.451,5.324-2.73,7.762-4.483C45.927,8.604,45.933,8.574,45.919,8.552z"/><path fill="#7cb342" d="M27.049,23.853c1.722-0.561,4.641-3.1-0.805-6.28C21.565,23.701,25.397,24.391,27.049,23.853z"/><path fill="#558b2f" d="M26.439,23.969c-0.596-0.235-0.802-1.062-0.703-1.636c0.073-0.607,0.356-1.096,0.541-1.601c0.185-0.504,0.329-1.015,0.335-1.535c0.023-0.521-0.119-1.048-0.391-1.527l0.061-0.044c0.36,0.428,0.624,0.964,0.705,1.548c0.074,0.584-0.012,1.172-0.133,1.725c-0.117,0.556-0.237,1.1-0.381,1.578c-0.136,0.485-0.229,0.899,0.019,1.439L26.439,23.969z"/><g><path fill="#7cb342" d="M25.898,25.178c0.667,1.615-1.924,5.926-8.401,3.809C19.446,23.31,25.067,23.164,25.898,25.178z"/></g><path fill="#558b2f" d="M25.62,24.952c-0.73,0.338-1.417,0.585-2.093,0.863c-0.669,0.282-1.386,0.445-2.061,0.755c-1.344,0.615-2.611,1.451-3.798,2.405l-0.07-0.072c0.992-1.166,2.148-2.221,3.492-3.039c0.668-0.406,1.357-0.84,2.143-1.005c0.777-0.17,1.592-0.217,2.379-0.006L25.62,24.952z"/></svg>